<svg width="40" height="40" viewBox="0 0 40 40" fill="none" xmlns="http://www.w3.org/2000/svg">
<ellipse cx="19.5157" cy="20" rx="19.5157" ry="20" fill="#1AE3D9"/>
<path d="M25.0783 12.0367C24.8014 12.0367 24.5307 12.1188 24.3005 12.2726C24.0703 12.4264 23.8908 12.6451 23.7849 12.9009C23.6789 13.1567 23.6512 13.4382 23.7052 13.7098C23.7592 13.9814 23.8926 14.2308 24.0884 14.4266C24.2842 14.6224 24.5336 14.7557 24.8052 14.8098C25.0768 14.8638 25.3582 14.8361 25.6141 14.7301C25.8699 14.6241 26.0885 14.4447 26.2424 14.2145C26.3962 13.9842 26.4783 13.7136 26.4783 13.4367C26.4783 13.0654 26.3308 12.7093 26.0683 12.4467C25.8057 12.1842 25.4496 12.0367 25.0783 12.0367ZM30.445 14.86C30.4223 13.892 30.241 12.9343 29.9083 12.025C29.6117 11.247 29.15 10.5425 28.555 9.96C27.9773 9.362 27.2711 8.90321 26.49 8.61833C25.5831 8.27552 24.6243 8.09008 23.655 8.07C22.4183 8 22.0216 8 18.8483 8C15.675 8 15.2783 8 14.0416 8.07C13.0723 8.09008 12.1135 8.27552 11.2066 8.61833C10.4269 8.90609 9.7214 9.36449 9.14164 9.96C8.54364 10.5377 8.08485 11.2438 7.79997 12.025C7.45716 12.9319 7.27172 13.8907 7.25164 14.86C7.18164 16.0967 7.18164 16.4933 7.18164 19.6667C7.18164 22.84 7.18164 23.2367 7.25164 24.4733C7.27172 25.4427 7.45716 26.4014 7.79997 27.3083C8.08485 28.0895 8.54364 28.7956 9.14164 29.3733C9.7214 29.9688 10.4269 30.4272 11.2066 30.715C12.1135 31.0578 13.0723 31.2433 14.0416 31.2633C15.2783 31.3333 15.675 31.3333 18.8483 31.3333C22.0216 31.3333 22.4183 31.3333 23.655 31.2633C24.6243 31.2433 25.5831 31.0578 26.49 30.715C27.2711 30.4301 27.9773 29.9713 28.555 29.3733C29.1526 28.793 29.6147 28.0879 29.9083 27.3083C30.241 26.399 30.4223 25.4413 30.445 24.4733C30.445 23.2367 30.515 22.84 30.515 19.6667C30.515 16.4933 30.515 16.0967 30.445 14.86ZM28.345 24.3333C28.3365 25.0739 28.2024 25.8077 27.9483 26.5033C27.762 27.0111 27.4628 27.4698 27.0733 27.845C26.6949 28.2306 26.2371 28.5292 25.7316 28.72C25.036 28.974 24.3022 29.1082 23.5616 29.1167C22.395 29.175 21.9633 29.1867 18.895 29.1867C15.8266 29.1867 15.395 29.1867 14.2283 29.1167C13.4593 29.1311 12.6937 29.0127 11.965 28.7667C11.4817 28.5661 11.0449 28.2682 10.6816 27.8917C10.2944 27.5169 9.99896 27.0577 9.81831 26.55C9.53347 25.8443 9.37549 25.0939 9.35164 24.3333C9.35164 23.1667 9.28164 22.735 9.28164 19.6667C9.28164 16.5983 9.28164 16.1667 9.35164 15C9.35687 14.2429 9.49508 13.4926 9.75997 12.7833C9.96536 12.2909 10.2806 11.8519 10.6816 11.5C11.0361 11.0989 11.4741 10.7803 11.965 10.5667C12.6761 10.3101 13.4256 10.1759 14.1816 10.17C15.3483 10.17 15.78 10.1 18.8483 10.1C21.9166 10.1 22.3483 10.1 23.515 10.17C24.2555 10.1785 24.9893 10.3126 25.685 10.5667C26.2151 10.7634 26.691 11.0833 27.0733 11.5C27.4556 11.8584 27.7544 12.2965 27.9483 12.7833C28.2076 13.4938 28.3418 14.2437 28.345 15C28.4033 16.1667 28.415 16.5983 28.415 19.6667C28.415 22.735 28.4033 23.1667 28.345 24.3333ZM18.8483 13.6817C17.6651 13.684 16.5091 14.0369 15.5264 14.696C14.5437 15.355 13.7784 16.2906 13.3272 17.3844C12.876 18.4782 12.7592 19.6812 12.9914 20.8414C13.2236 22.0016 13.7946 23.067 14.6321 23.9028C15.4695 24.7387 16.536 25.3075 17.6966 25.5375C18.8573 25.7675 20.0601 25.6483 21.153 25.195C22.246 24.7416 23.18 23.9745 23.8371 22.9905C24.4942 22.0066 24.845 20.8499 24.845 19.6667C24.8465 18.8793 24.6924 18.0994 24.3914 17.3718C24.0905 16.6442 23.6486 15.9833 23.0913 15.4271C22.534 14.8708 21.8722 14.4303 21.1441 14.1308C20.4159 13.8312 19.6357 13.6786 18.8483 13.6817ZM18.8483 23.5517C18.0799 23.5517 17.3288 23.3238 16.6899 22.8969C16.051 22.47 15.5531 21.8633 15.259 21.1534C14.965 20.4435 14.8881 19.6624 15.038 18.9087C15.1879 18.1551 15.5579 17.4629 16.1012 16.9196C16.6445 16.3762 17.3368 16.0062 18.0904 15.8563C18.844 15.7064 19.6251 15.7833 20.335 16.0774C21.0449 16.3714 21.6517 16.8694 22.0786 17.5083C22.5055 18.1472 22.7333 18.8983 22.7333 19.6667C22.7333 20.1769 22.6328 20.682 22.4376 21.1534C22.2423 21.6247 21.9562 22.053 21.5954 22.4138C21.2347 22.7745 20.8064 23.0607 20.335 23.2559C19.8637 23.4512 19.3585 23.5517 18.8483 23.5517Z" fill="white"/>
</svg>
