<svg width="512" height="512" viewBox="0 0 512 512" fill="none" xmlns="http://www.w3.org/2000/svg">
<path d="M508.08 174.48H92.24C91.2003 174.48 90.2033 174.893 89.4681 175.628C88.733 176.363 88.32 177.36 88.32 178.4V231.6C88.32 233.84 90.08 235.6 92.24 235.6H508.08C510.24 235.6 512 233.84 512 231.6V178.4C512 177.36 511.587 176.363 510.852 175.628C510.117 174.893 509.12 174.48 508.08 174.48ZM508.08 276.48H92.24C91.2003 276.48 90.2033 276.893 89.4681 277.628C88.733 278.363 88.32 279.36 88.32 280.4V333.6C88.32 335.76 90.08 337.52 92.24 337.52H508.08C510.24 337.52 512 335.76 512 333.6V280.4C512 279.36 511.587 278.363 510.852 277.628C510.117 276.893 509.12 276.48 508.08 276.48ZM508.08 378.48H92.24C91.2003 378.48 90.2033 378.893 89.4681 379.628C88.733 380.363 88.32 381.36 88.32 382.4V435.6C88.32 437.76 90.08 439.52 92.24 439.52H508.08C510.24 439.52 512 437.76 512 435.6V382.4C512 381.885 511.899 381.375 511.702 380.9C511.505 380.424 511.216 379.992 510.852 379.628C510.488 379.264 510.056 378.975 509.58 378.778C509.105 378.581 508.595 378.48 508.08 378.48ZM508.08 72.48H92.24C91.2003 72.48 90.2033 72.893 89.4681 73.6281C88.733 74.3633 88.32 75.3604 88.32 76.4V129.68C88.32 131.84 90.08 133.6 92.24 133.6H508.08C510.24 133.6 512 131.84 512 129.68V76.4C512 75.3604 511.587 74.3633 510.852 73.6281C510.117 72.893 509.12 72.48 508.08 72.48ZM39.04 369.92C17.52 369.92 0 387.44 0 408.96C0 430.48 17.52 448 39.04 448C60.56 448 78.08 430.48 78.08 408.96C78.08 387.44 60.56 369.92 39.04 369.92ZM39.04 64C17.52 64 0 81.52 0 103.04C0 124.56 17.52 142.08 39.04 142.08C60.56 142.08 78.08 124.56 78.08 103.04C78.08 81.52 60.56 64 39.04 64ZM39.04 267.92C17.52 267.92 0 285.44 0 307.04C0 328.56 17.52 346.08 39.04 346.08C60.56 346.08 78.08 328.56 78.08 307.04C78.08 285.44 60.56 267.92 39.04 267.92ZM39.04 166C17.52 166 0 183.52 0 205.04C0 226.56 17.52 244.08 39.04 244.08C60.56 244.08 78.08 226.56 78.08 205.04C78.08 183.52 60.56 166 39.04 166Z" fill="#1AE3D9"/>
</svg>
