<svg width="40" height="40" viewBox="0 0 40 40" fill="none" xmlns="http://www.w3.org/2000/svg">
<ellipse cx="20.1598" cy="20" rx="19.5157" ry="20" fill="#1AE3D9"/>
<path d="M28.9816 19.1375V15.8242C27.43 15.8242 26.2458 15.41 25.4816 14.605C24.6973 13.6863 24.2579 12.5228 24.2391 11.315V11.0758L21.1066 11V24.4575C20.9992 25.0447 20.7142 25.5847 20.2901 26.0048C19.8659 26.4248 19.3232 26.7046 18.735 26.8064C18.1468 26.9082 17.5416 26.8271 17.001 26.574C16.4604 26.3209 16.0105 25.908 15.7119 25.3911C15.4134 24.8742 15.2806 24.2782 15.3316 23.6835C15.3826 23.0887 15.6148 22.524 15.9969 22.0654C16.379 21.6068 16.8926 21.2765 17.4684 21.1191C18.0441 20.9616 18.6544 20.9846 19.2166 21.185V17.9767C18.8888 17.923 18.5572 17.8956 18.225 17.895C17.0297 17.895 15.8613 18.2494 14.8675 18.9135C13.8737 19.5775 13.0991 20.5214 12.6417 21.6257C12.1843 22.7299 12.0646 23.945 12.2978 25.1173C12.5309 26.2896 13.1065 27.3664 13.9517 28.2116C14.7969 29.0568 15.8737 29.6324 17.046 29.8655C18.2183 30.0987 19.4334 29.9791 20.5377 29.5216C21.6419 29.0642 22.5858 28.2897 23.2498 27.2958C23.9139 26.302 24.2683 25.1336 24.2683 23.9383C24.2677 23.6907 24.2521 23.4433 24.2216 23.1975V17.86C25.646 18.7496 27.3033 19.1943 28.9816 19.1375Z" fill="white"/>
</svg>
